<?xml version="1.0" encoding="utf-8"?>
<!-- Generator: Adobe Illustrator 20.0.0, SVG Export Plug-In . SVG Version: 6.00 Build 0)  -->
<svg version="1.1" id="Layer_1" xmlns="http://www.w3.org/2000/svg" xmlns:xlink="http://www.w3.org/1999/xlink" x="0px" y="0px"
	 viewBox="0 0 184.2 92.2" style="enable-background:new 0 0 184.2 82.2;" xml:space="preserve">
<style type="text/css">
	.st0{fill:#44C6EE;}
	.st1{fill:#1AA99E;}
	.st2{fill:#F15B44;}
	.st3{fill:#FCB246;}
	.st4{fill:#FFFFFF;}
</style>
<g height="50">
					<rect x="29.2" y="70" fill="#44C6EE" width="7" height="13.7">
					</rect>

					<rect x="51.9" y="70" fill="#1AA99E" width="7" height="16.8">
					</rect>
					<rect x="73.4" y="70" fill="#1AA99E" width="7" height="8.4">
					</rect>
					<rect x="95.2" y="70" fill="#F15B44" width="7" height="13.7">
					</rect>
					<rect x="116.9" y="70" fill="#F15B44" width="7" height="17.8">
					</rect>
					<rect x="138.7" y="70" fill="#FCB246" width="7" height="10">
					</rect>
				</g>
<g>
	<path class="st4" d="M39.4,31.5c4.2,2.2,6.5,6.3,6.5,11.1c0,8.8-5.8,15.8-16.4,15.8H4.6V6.7h22.8c9.6,0,16.3,6.2,16.3,15.9
		C43.7,25.7,42,29.4,39.4,31.5z M18.1,18.4V27h8.4c2.6,0,3.9-2,4-4.1c0.1-2.3-1.3-4.5-4-4.5C26.5,18.4,18.1,18.4,18.1,18.4z
		 M18.1,38v8.6h10.4c2.6,0,3.7-1.9,4-4c0.1-1.6-0.6-3.2-1.8-4.1c-0.7-0.3-1.4-0.5-2.2-0.5L18.1,38L18.1,38z"/>
	<path class="st4" d="M64.8,24.5c1.4-0.1,2.8-0.1,4.2-0.1c10.8,0.2,19.5,4.1,19.5,17.4c0,8.7-6.1,17.9-18.1,17.9
		c-10,0-17.6-6.5-17.8-16.8h11.7c0.1,3.5,2.3,5,5.8,5c3.5,0,5.7-2.6,5.7-6.1c0-5.4-5.4-6.9-11.1-7.1c-4.1-0.2-8.4,0.3-10.9,0.3V6.9
		h32.3v11.2H64.8V24.5z"/>
	<path class="st4" d="M135.2,23.7v18.2c0,11.3-8.6,17.8-19.3,17.8c-10.7,0-19.4-6.5-19.4-17.8V23.7c0-11.2,8.7-17.8,19.4-17.8
		C126.6,5.9,135.2,12.5,135.2,23.7z M122.7,41.6V24c0-4.2-3-6.4-6.7-6.4c-3.9,0-6.8,2.2-6.8,6.4v17.7c0,4.1,2.9,6.2,6.8,6.2
		C119.8,47.9,122.7,45.8,122.7,41.6z"/>
	<path class="st4" d="M180.4,8.8l-21.1,49.8h-13.5l16.6-39.9h-20V6.9h38V8.8z"/>
</g>
</svg>
